# xmcd
#
# Track frame offsets: 
#        150
#        17744
#        36071
#        62534
#        77034
#        101724
#        116793
#        135453
#        163027
#        180400
#        200122
#        212957
#        229871
#        253709
#
# Disc length: 3721 seconds
#
# Revision: 0
# Processed by: cddbd v1.5.2PL0 Copyright (c) Steve Scherf et al.
# Submitted via: ExactAudioCopy v0.99pb5
#
DISCID=c20e870e
DTITLE=Eric Clapton - Clapton
DYEAR=2010
DGENRE=Blues
TTITLE0=Traveling Alone
TTITLE1=Rocking Chair
TTITLE2=River Runs Deep
TTITLE3=Judgement Day
TTITLE4=How Deep Is The Ocean
TTITLE5=Milkman
TTITLE6=Crazy About You Baby
TTITLE7=That's No Way To Get Along
TTITLE8=Everything Will Be Alright
TTITLE9=Diamonds
TTITLE10=When Somebody Thinks You're Wonderful
TTITLE11=Hard Times
TTITLE12=Run Back To Your Side
TTITLE13=Autum Leaves
EXTD=
EXTT0=
EXTT1=
EXTT2=
EXTT3=
EXTT4=
EXTT5=
EXTT6=
EXTT7=
EXTT8=
EXTT9=
EXTT10=
EXTT11=
EXTT12=
EXTT13=
PLAYORDER=
